<?xml version="1.0" encoding="UTF-8"?>
<svg width="34px" height="22px" viewBox="0 0 34 22" version="1.1" xmlns="http://www.w3.org/2000/svg" xmlns:xlink="http://www.w3.org/1999/xlink">
    <!-- Generator: Sketch 41.1 (35376) - http://www.bohemiancoding.com/sketch -->
    <title>mastercard-card</title>
    <desc>Created with Sketch.</desc>
    <defs>
        <rect id="path-1" x="0" y="0" width="34" height="22" rx="3"></rect>
        <mask id="mask-2" maskContentUnits="userSpaceOnUse" maskUnits="objectBoundingBox" x="0" y="0" width="34" height="22" fill="white">
            <use xlink:href="#path-1"></use>
        </mask>
    </defs>
    <g id="Page-1" stroke="none" stroke-width="1" fill="none" fill-rule="evenodd">
        <g id="DepositPage-Card" transform="translate(-730.000000, -386.000000)">
            <g id="Group-10" transform="translate(230.000000, 260.000000)">
                <g id="Group-9" transform="translate(10.000000, 10.000000)">
                    <g id="Group-6" transform="translate(212.000000, 96.000000)">
                        <g id="Group-11" transform="translate(234.000000, 20.000000)">
                            <g id="mastercard-card" transform="translate(44.000000, 0.000000)">
                                <g id="Group-40">
                                    <use id="Rectangle-2094" stroke="#000066" mask="url(#mask-2)" stroke-width="2" fill="#000066" xlink:href="#path-1"></use>
                                    <g id="mc_accpt_rgb_eps" transform="translate(1.099998, 1.199997)">
                                        <path d="M19.0497414,9.84482759 C19.0497414,14.9666638 14.8980776,19.118181 9.77653448,19.118181 C4.65455172,19.118181 0.502594828,14.9666638 0.502594828,9.84482759 C0.502594828,4.72313793 4.65455172,0.571181034 9.77653448,0.571181034 C14.8980776,0.571181034 19.0497414,4.72313793 19.0497414,9.84482759" id="Fill-2" fill="#CC0000"></path>
                                        <path d="M22.2266897,0.571181034 C19.8301293,0.571181034 17.6469483,1.48024138 16.0008793,2.97155172 C15.6661552,3.2755 15.3534138,3.60377586 15.0651466,3.95330172 L16.9385172,3.95330172 C17.1943966,4.26487069 17.4303448,4.59241379 17.6454828,4.93549138 L14.3577414,4.93549138 C14.1612155,5.25072414 13.9822759,5.57826724 13.8235603,5.91768103 L18.1796638,5.91768103 C18.3285603,6.23555172 18.4595776,6.56294828 18.5724224,6.89943103 L13.4308017,6.89943103 C13.3236724,7.21935345 13.2335431,7.54689655 13.1612931,7.88103448 L18.8414914,7.88103448 C18.9773448,8.51413793 19.0497414,9.17098276 19.0497414,9.84482759 C19.0497414,10.8743534 18.8820862,11.8653362 18.5724224,12.7908103 L13.4308017,12.7908103 C13.5435,13.1271466 13.6746638,13.4548362 13.8232672,13.7731466 L18.1796638,13.7731466 C18.0205086,14.111681 17.8424483,14.4395172 17.64475,14.7551897 L14.3577414,14.7551897 C14.5722931,15.0972414 14.808681,15.4252241 15.0651466,15.7363534 L16.937931,15.7363534 C16.6501034,16.0861724 16.3372155,16.4144483 16.001319,16.7183966 C17.6472414,18.2097069 19.8301293,19.118181 22.2266897,19.118181 C27.3482328,19.118181 31.5001897,14.9666638 31.5001897,9.84482759 C31.5001897,4.72357759 27.3482328,0.571181034 22.2266897,0.571181034" id="Fill-3" fill="#FF9900"></path>
                                        <path d="M30.2641724,15.0141466 C30.2641724,14.8488362 30.3984138,14.7147414 30.5638707,14.7147414 C30.7296207,14.7147414 30.8632759,14.8488362 30.8632759,15.0141466 C30.8632759,15.1796034 30.7296207,15.3138448 30.5638707,15.3138448 C30.3984138,15.3138448 30.2641724,15.1796034 30.2641724,15.0141466 L30.2641724,15.0141466 Z M30.5638707,15.2420345 C30.6891724,15.2420345 30.7914655,15.1398879 30.7914655,15.0141466 C30.7914655,14.8879655 30.6891724,14.7866983 30.5638707,14.7866983 C30.4379828,14.7866983 30.3359828,14.8879655 30.3359828,15.0141466 C30.3359828,15.1398879 30.4379828,15.2420345 30.5638707,15.2420345 L30.5638707,15.2420345 Z M30.5232759,15.1456034 L30.4617241,15.1456034 L30.4617241,14.8828362 L30.57325,14.8828362 C30.5962586,14.8828362 30.62,14.8828362 30.6405172,14.8954397 C30.6614741,14.9103879 30.6737845,14.9354483 30.6737845,14.9615345 C30.6737845,14.9912845 30.6566379,15.0191293 30.6280603,15.029681 L30.6767155,15.1456034 L30.608569,15.1456034 L30.5681207,15.0416983 L30.5232759,15.0416983 L30.5232759,15.1456034 L30.5232759,15.1456034 Z M30.5232759,14.9964138 L30.5572759,14.9964138 C30.5698793,14.9964138 30.5833621,14.9972931 30.5947931,14.9912845 C30.6047586,14.9846897 30.610181,14.9729655 30.610181,14.9609483 C30.610181,14.9509828 30.6034397,14.9392586 30.5950862,14.9341293 C30.5842414,14.9278276 30.5672414,14.9291466 30.5558103,14.9291466 L30.5232759,14.9291466 L30.5232759,14.9964138 L30.5232759,14.9964138 Z" id="Fill-4" fill="#FF9900"></path>
                                        <polyline id="Fill-13" fill="#FFFFFF" points="5.4214569 12.2855 4.4147931 12.2855 4.99162069 8.66977586 3.70387069 12.2855 3.01771552 12.2855 2.93286207 8.69073276 2.32672414 12.2855 1.38439655 12.2855 2.17152586 7.58206897 3.61931034 7.58206897 3.65961207 10.4937586 4.63652586 7.58206897 6.20008621 7.58206897 5.4214569 12.2855"></polyline>
                                        <path d="M7.90067241,10.5815431 C7.79515517,10.5692328 7.74855172,10.5658621 7.67600862,10.5658621 C7.10533621,10.5658621 6.81648276,10.7613621 6.81648276,11.147819 C6.81648276,11.3856724 6.95746552,11.5379397 7.17743966,11.5379397 C7.58763793,11.5379397 7.88323276,11.1475259 7.90067241,10.5815431 L7.90067241,10.5815431 Z M8.63284483,12.2855 L7.79881897,12.2855 L7.81787069,11.8893707 C7.5634569,12.2022586 7.22389655,12.3518879 6.76269828,12.3518879 C6.21708621,12.3518879 5.84308621,11.9254224 5.84308621,11.306681 C5.84308621,10.3749052 6.49362931,9.83237069 7.6105,9.83237069 C7.72481034,9.83237069 7.87106897,9.84277586 8.02084483,9.86212069 C8.05206034,9.7355 8.06026724,9.68171552 8.06026724,9.61312931 C8.06026724,9.36018103 7.88484483,9.26594828 7.4147069,9.26594828 C6.92185345,9.26008621 6.51590517,9.38275 6.34883621,9.43741379 C6.35938793,9.37410345 6.4885,8.57730172 6.4885,8.57730172 C6.99014655,8.43016379 7.32106034,8.37462069 7.69344828,8.37462069 C8.5579569,8.37462069 9.01578448,8.76312931 9.01490517,9.49647414 C9.01666379,9.693 8.98412931,9.93612931 8.93356897,10.2544397 C8.84607759,10.8079655 8.65849138,11.9967931 8.63284483,12.2855 L8.63284483,12.2855 Z" id="Fill-14" fill="#FFFFFF"></path>
                                        <path d="M22.1362672,7.70868966 L21.9713966,8.72942241 C21.6119052,8.54872414 21.3514828,8.47559483 21.0720086,8.47559483 C20.3203448,8.47559483 19.7931983,9.20205172 19.7931983,10.2381724 C19.7931983,10.9520259 20.1475603,11.3833276 20.7328879,11.3833276 C20.9807069,11.3833276 21.2546121,11.306681 21.5878707,11.1421034 L21.4109828,12.2139828 C21.0403534,12.3151034 20.8004483,12.3518879 20.5214138,12.3518879 C19.4373707,12.3518879 18.7622069,11.5725259 18.7622069,10.3211207 C18.7622069,8.63958621 19.6955948,7.46438793 21.0296552,7.46438793 C21.4693103,7.46438793 21.9885431,7.65065517 22.1362672,7.70868966" id="Fill-15" fill="#FFFFFF"></path>
                                        <path d="M23.7603534,10.5815431 C23.6552759,10.5692328 23.6086724,10.5658621 23.5362759,10.5658621 C22.96575,10.5658621 22.6768966,10.7613621 22.6768966,11.147819 C22.6768966,11.3856724 22.8178793,11.5379397 23.0377069,11.5379397 C23.4474655,11.5379397 23.7435,11.1475259 23.7603534,10.5815431 L23.7603534,10.5815431 Z M24.4931121,12.2855 L23.6590862,12.2855 L23.6779914,11.8893707 C23.423431,12.2022586 23.0840172,12.3518879 22.6231121,12.3518879 C22.0770603,12.3518879 21.7035,11.9254224 21.7035,11.306681 C21.7035,10.3749052 22.3536034,9.83237069 23.4707672,9.83237069 C23.584931,9.83237069 23.7308966,9.84277586 23.8805259,9.86212069 C23.9117414,9.7355 23.9200948,9.68171552 23.9200948,9.61312931 C23.9200948,9.36018103 23.7452586,9.26594828 23.274681,9.26594828 C22.7822672,9.26008621 22.3764655,9.38275 22.2089569,9.43741379 C22.2196552,9.37410345 22.3486207,8.57730172 22.3486207,8.57730172 C22.8504138,8.43016379 23.1810345,8.37462069 23.5534224,8.37462069 C24.417931,8.37462069 24.8760517,8.76312931 24.8750259,9.49647414 C24.876931,9.693 24.8443966,9.93612931 24.7936897,10.2544397 C24.7063448,10.8079655 24.5189052,11.9967931 24.4931121,12.2855 L24.4931121,12.2855 Z" id="Fill-16" fill="#FFFFFF"></path>
                                        <path d="M13.107069,12.2274655 C12.8316983,12.3142241 12.6168534,12.3518879 12.3839828,12.3518879 C11.8692931,12.3518879 11.5882069,12.056 11.5882069,11.5118534 C11.5811724,11.3421466 11.6625086,10.8982414 11.7264052,10.492 C11.7844397,10.1342672 12.1629828,7.88147414 12.1629828,7.88147414 L13.1636379,7.88147414 L13.0466897,8.46035345 L13.5603534,8.46035345 L13.4236207,9.37952586 L12.9081983,9.37952586 C12.7919828,10.1075948 12.6260862,11.0132845 12.624181,11.1334569 C12.624181,11.3313017 12.7296983,11.4168879 12.9691638,11.4168879 C13.0837672,11.4168879 13.1725776,11.4056034 13.2405776,11.3808362 L13.107069,12.2274655" id="Fill-17" fill="#FFFFFF"></path>
                                        <path d="M16.1757155,12.1971293 C15.8319052,12.3023534 15.4996724,12.352181 15.148681,12.3518879 C14.0281466,12.3511552 13.444431,11.765681 13.444431,10.6454397 C13.444431,9.33746552 14.1871552,8.37462069 15.1952845,8.37462069 C16.0211034,8.37462069 16.5478103,8.91363793 16.5478103,9.75968103 C16.5478103,10.0400345 16.5111724,10.3136466 16.4247069,10.7001034 L14.43175,10.7001034 C14.3640431,11.2550948 14.719431,11.4866466 15.3013879,11.4866466 C15.6594138,11.4866466 15.9827069,11.4124914 16.3423448,11.2454224 L16.1757155,12.1971293 L16.1757155,12.1971293 Z M15.61325,9.92865517 C15.6186724,9.84863793 15.7192069,9.24587069 15.1473621,9.24587069 C14.8287586,9.24587069 14.6008707,9.4892931 14.5079569,9.92865517 L15.61325,9.92865517 L15.61325,9.92865517 Z" id="Fill-18" fill="#FFFFFF"></path>
                                        <path d="M9.23663793,9.66955172 C9.23663793,10.1539052 9.47141379,10.4868707 10.0035431,10.7379138 C10.4111034,10.9296034 10.4741207,10.986319 10.4741207,11.1601293 C10.4741207,11.398569 10.2944483,11.5061379 9.89597414,11.5061379 C9.5955431,11.5061379 9.31621552,11.4595345 8.99380172,11.3556293 C8.99380172,11.3556293 8.86190517,12.1984483 8.85560345,12.2383103 C9.08437069,12.288431 9.28851724,12.3341552 9.90315517,12.3518879 C10.9656552,12.3518879 11.4563103,11.9475517 11.4563103,11.0733707 C11.4563103,10.5475431 11.2508448,10.2391983 10.7465603,10.0076466 C10.3244914,9.81346552 10.2759828,9.77052586 10.2759828,9.59173276 C10.2759828,9.38494828 10.4431983,9.27855172 10.7686897,9.27855172 C10.9660948,9.27855172 11.2361897,9.30053448 11.492069,9.33658621 L11.6353966,8.44950862 C11.374681,8.40832759 10.9795776,8.37462069 10.7491983,8.37462069 C9.62294828,8.37462069 9.23326724,8.96287931 9.23663793,9.66955172" id="Fill-19" fill="#FFFFFF"></path>
                                        <path d="M29.8215862,12.2855 L28.8694397,12.2855 L28.9166293,11.9295259 C28.6403793,12.2245345 28.3572414,12.3518879 27.9883707,12.3518879 C27.2566379,12.3518879 26.7727241,11.7214224 26.7727241,10.7644397 C26.7727241,9.49207759 27.5232155,8.41961207 28.4107328,8.41961207 C28.8012931,8.41961207 29.0968879,8.57906034 29.3722586,8.94133621 L29.5956034,7.58206897 L30.5884914,7.58206897 L29.8215862,12.2855 L29.8215862,12.2855 Z M28.336431,11.4016466 C28.8055431,11.4016466 29.1346983,10.8703966 29.1346983,10.1127241 C29.1346983,9.62661207 28.9472586,9.36267241 28.6011034,9.36267241 C28.1445948,9.36267241 27.8202759,9.89568103 27.8202759,10.647931 C27.8202759,11.1486983 27.9940862,11.4016466 28.336431,11.4016466 L28.336431,11.4016466 Z" id="Fill-20" fill="#FFFFFF"></path>
                                        <path d="M25.3999741,8.46035345 C25.2739397,9.64434483 25.0501552,10.8435776 24.8750259,12.0281552 L24.8291552,12.2855 L25.8361121,12.2855 C26.1961897,9.94624138 26.2829483,9.48973276 26.8480517,9.54674138 C26.9378879,9.0679569 27.10525,8.64867241 27.2301121,8.43734483 C26.8084828,8.34941379 26.5729741,8.5877069 26.2643362,9.04055172 C26.2889569,8.84461207 26.3333621,8.65453448 26.3250086,8.46035345 L25.3999741,8.46035345" id="Fill-21" fill="#FFFFFF"></path>
                                        <path d="M17.1126207,8.46035345 C16.986,9.64434483 16.7619224,10.8435776 16.5870862,12.0281552 L16.5412155,12.2855 L17.5484655,12.2855 C17.9088362,9.94624138 17.9953017,9.48973276 18.5595259,9.54674138 C18.6499483,9.0679569 18.81775,8.64867241 18.9421724,8.43734483 C18.5208362,8.34941379 18.2850345,8.5877069 17.9769828,9.04055172 C18.0013103,8.84461207 18.0460086,8.65453448 18.037069,8.46035345 L17.1126207,8.46035345" id="Fill-22" fill="#FFFFFF"></path>
                                        <path d="M30.2638793,11.9860948 C30.2638793,11.8200517 30.3984138,11.6863966 30.5629914,11.6863966 C30.7287414,11.6863966 30.8623966,11.8200517 30.8623966,11.9860948 C30.8623966,12.1509655 30.7287414,12.2855 30.5629914,12.2855 C30.3984138,12.2855 30.2638793,12.1509655 30.2638793,11.9860948 L30.2638793,11.9860948 Z M30.5629914,12.2136897 C30.6891724,12.2136897 30.7911724,12.1115431 30.7911724,11.9860948 C30.7911724,11.8605 30.6891724,11.7583534 30.5629914,11.7583534 C30.4373966,11.7583534 30.3356897,11.8605 30.3356897,11.9860948 C30.3356897,12.1115431 30.4373966,12.2136897 30.5629914,12.2136897 L30.5629914,12.2136897 Z M30.5226897,12.1169655 L30.461431,12.1169655 L30.461431,11.8541983 L30.5726638,11.8541983 C30.5959655,11.8541983 30.6194138,11.8550776 30.6397845,11.867681 C30.6614741,11.8818966 30.6731983,11.9071034 30.6731983,11.9331897 C30.6731983,11.9629397 30.6560517,11.9907845 30.6280603,12.0013362 L30.6764224,12.1169655 L30.6082759,12.1169655 L30.5678276,12.0130603 L30.5226897,12.0130603 L30.5226897,12.1169655 L30.5226897,12.1169655 Z M30.5226897,11.968069 L30.5566897,11.968069 C30.569,11.968069 30.5833621,11.9692414 30.5942069,11.9629397 C30.6041724,11.9566379 30.6093017,11.9440345 30.6093017,11.9326034 C30.6093017,11.9226379 30.6034397,11.9115 30.5947931,11.9053448 C30.5842414,11.8994828 30.5669483,11.9010948 30.5555172,11.9010948 L30.5226897,11.9010948 L30.5226897,11.968069 L30.5226897,11.968069 Z" id="Fill-23" fill="#FFFFFF"></path>
                                    </g>
                                </g>
                            </g>
                        </g>
                    </g>
                </g>
            </g>
        </g>
    </g>
</svg>