<?xml version="1.0" encoding="UTF-8"?>
<svg width="34px" height="22px" viewBox="0 0 34 22" version="1.1" xmlns="http://www.w3.org/2000/svg" xmlns:xlink="http://www.w3.org/1999/xlink">
    <!-- Generator: Sketch 41.1 (35376) - http://www.bohemiancoding.com/sketch -->
    <title>maestro-card</title>
    <desc>Created with Sketch.</desc>
    <defs>
        <rect id="path-1" x="0" y="0" width="34" height="22" rx="3"></rect>
        <mask id="mask-2" maskContentUnits="userSpaceOnUse" maskUnits="objectBoundingBox" x="0" y="0" width="34" height="22" fill="white">
            <use xlink:href="#path-1"></use>
        </mask>
    </defs>
    <g id="Page-1" stroke="none" stroke-width="1" fill="none" fill-rule="evenodd">
        <g id="DepositPage-Card" transform="translate(-774.000000, -386.000000)">
            <g id="Group-10" transform="translate(230.000000, 260.000000)">
                <g id="Group-9" transform="translate(10.000000, 10.000000)">
                    <g id="Group-6" transform="translate(212.000000, 96.000000)">
                        <g id="Group-11" transform="translate(234.000000, 20.000000)">
                            <g id="maestro-card" transform="translate(88.000000, 0.000000)">
                                <g id="Group-40" stroke="#000066" stroke-width="2" fill="#000066">
                                    <use id="Rectangle-2094" mask="url(#mask-2)" xlink:href="#path-1"></use>
                                </g>
                                <g id="ms_accpt_rgb_eps" transform="translate(1.099998, 1.199997)">
                                    <path d="M31.4985776,9.84512069 C31.4985776,14.9669569 27.3475,19.1184741 22.2258103,19.1184741 C17.1051466,19.1184741 12.9536293,14.9669569 12.9536293,9.84512069 C12.9536293,4.72313793 17.1051466,0.571327586 22.2258103,0.571327586 C27.3475,0.571327586 31.4985776,4.72313793 31.4985776,9.84512069" id="Fill-2" fill="#CC0000"></path>
                                    <path d="M15.0629483,15.7340086 C14.8069224,15.4234655 14.5711207,15.0954828 14.3567155,14.7519655 L17.6429914,14.7519655 C17.84025,14.4371724 18.0183103,14.1091897 18.177319,13.7699224 L13.822681,13.7699224 C13.6742241,13.4521983 13.5424741,13.1245086 13.430069,12.7881724 L18.5691983,12.7881724 C18.8787155,11.8632845 19.045931,10.8740603 19.045931,9.84512069 C19.045931,9.17127586 18.9741207,8.51413793 18.8378276,7.88132759 L13.1621724,7.88132759 C13.2339828,7.54675 13.3245517,7.21935345 13.4312414,6.89928448 L18.5686121,6.89928448 C18.4559138,6.56294828 18.32475,6.23540517 18.1764397,5.91768103 L13.8235603,5.91768103 C13.982569,5.57841379 14.161069,5.25101724 14.3577414,4.93549138 L17.6419655,4.93549138 C17.4277069,4.59285345 17.191319,4.26531034 16.9357328,3.95432759 L15.0641207,3.95432759 C15.3520948,3.60465517 15.6649828,3.27667241 16,2.97272414 C14.3540776,1.48053448 12.1698707,0.571327586 9.77389655,0.571327586 C4.6525,0.571327586 0.500982759,4.72313793 0.500982759,9.84512069 C0.500982759,14.9669569 4.6525,19.1184741 9.77389655,19.1184741 C12.1700172,19.1184741 14.3545172,18.2097069 16,16.7176638 C16.3354569,16.4132759 16.6487845,16.0844138 16.9367586,15.7340086 L15.0629483,15.7340086" id="Fill-3" fill="#0066CC"></path>
                                    <path d="M30.2624138,15.0137069 C30.2624138,14.8485431 30.3965086,14.7143017 30.5619655,14.7143017 C30.7274224,14.7143017 30.8613707,14.8485431 30.8613707,15.0137069 C30.8613707,15.1790172 30.7274224,15.3134052 30.5619655,15.3134052 C30.3965086,15.3134052 30.2624138,15.1790172 30.2624138,15.0137069 L30.2624138,15.0137069 Z M30.5619655,15.2414483 C30.6877069,15.2414483 30.7897069,15.1395948 30.7897069,15.0137069 C30.7897069,14.8879655 30.6877069,14.7866983 30.5619655,14.7866983 C30.4363707,14.7866983 30.3342241,14.8879655 30.3342241,15.0137069 C30.3342241,15.1395948 30.4363707,15.2414483 30.5619655,15.2414483 L30.5619655,15.2414483 Z M30.5215172,15.1453103 L30.4602586,15.1453103 L30.4602586,14.8819569 L30.5713448,14.8819569 C30.5943534,14.8819569 30.6180948,14.88225 30.6386121,14.8954397 C30.6600086,14.9100948 30.6718793,14.9354483 30.6718793,14.9609483 C30.6718793,14.9912845 30.6544397,15.0185431 30.6263017,15.0290948 L30.6746638,15.1453103 L30.6065172,15.1453103 L30.5665086,15.0414052 L30.5215172,15.0414052 L30.5215172,15.1453103 L30.5215172,15.1453103 Z M30.5215172,14.9964138 L30.5553707,14.9964138 C30.5681207,14.9964138 30.5816034,14.997 30.5928879,14.9912845 C30.603,14.9843966 30.6082759,14.9723793 30.6082759,14.9606552 C30.6082759,14.9509828 30.6019741,14.9392586 30.5934741,14.9341293 C30.5826293,14.9278276 30.5656293,14.9291466 30.5541983,14.9291466 L30.5215172,14.9291466 L30.5215172,14.9964138 L30.5215172,14.9964138 Z" id="Fill-4" fill="#CC0000"></path>
                                    <path d="M28.3030172,11.8539052 C28.3030172,11.6887414 28.4371121,11.5547931 28.602569,11.5547931 C28.7680259,11.5547931 28.9019741,11.6887414 28.9019741,11.8539052 C28.9019741,12.0196552 28.7680259,12.1538966 28.602569,12.1538966 C28.4371121,12.1538966 28.3030172,12.0196552 28.3030172,11.8539052 L28.3030172,11.8539052 Z M28.602569,12.0820862 C28.7283103,12.0820862 28.8303103,11.9797931 28.8303103,11.8539052 C28.8303103,11.7283103 28.7283103,11.6266034 28.602569,11.6266034 C28.4769741,11.6266034 28.3748276,11.7283103 28.3748276,11.8539052 C28.3748276,11.9797931 28.4769741,12.0820862 28.602569,12.0820862 L28.602569,12.0820862 Z M28.5621207,11.9855086 L28.5007155,11.9855086 L28.5007155,11.7228879 L28.6119483,11.7228879 C28.6349569,11.7228879 28.6586983,11.7228879 28.6792155,11.735931 C28.700319,11.7502931 28.7124828,11.7755 28.7124828,11.8015862 C28.7124828,11.8313362 28.6950431,11.8590345 28.6669052,11.8695862 L28.7152672,11.9855086 L28.6471207,11.9855086 L28.6071121,11.8816034 L28.5621207,11.8816034 L28.5621207,11.9855086 L28.5621207,11.9855086 Z M28.5621207,11.8364655 L28.5959741,11.8364655 C28.6087241,11.8364655 28.6222069,11.8373448 28.6334914,11.8313362 C28.6434569,11.8247414 28.6488793,11.8130172 28.6488793,11.801 C28.6488793,11.7908879 28.6425776,11.7794569 28.6340776,11.7746207 C28.6232328,11.7677328 28.6062328,11.7694914 28.5948017,11.7694914 L28.5621207,11.7694914 L28.5621207,11.8364655 L28.5621207,11.8364655 Z" id="Fill-11" fill="#FFFFFF"></path>
                                    <path d="M16.1573966,12.0614224 C15.7614138,12.1665 15.3780345,12.2176466 14.9731121,12.2167672 C13.6806724,12.2157414 13.0075603,11.6268966 13.0075603,10.5010862 C13.0075603,9.18593103 13.8643017,8.2185431 15.0273362,8.2185431 C15.9788966,8.2185431 16.5863534,8.76093103 16.5863534,9.61063793 C16.5863534,9.89275 16.5451724,10.1668017 16.4446379,10.5558966 L14.1464138,10.5558966 C14.0644914,11.1051724 14.4656034,11.3469828 15.1489741,11.3469828 C15.5582931,11.3469828 15.9286293,11.2734138 16.3385345,11.10825 L16.1573966,12.0614224 L16.1573966,12.0614224 Z M15.5393879,9.78005172 C15.5393879,9.69725 15.6673276,9.10693966 15.0022759,9.09389655 C14.6351638,9.09389655 14.3716638,9.33819828 14.2648276,9.78005172 L15.5393879,9.78005172 L15.5393879,9.78005172 Z" id="Fill-12" fill="#FFFFFF"></path>
                                    <path d="M16.936319,9.52182759 C16.936319,10.0079397 17.2096379,10.3433966 17.8313103,10.5935603 C18.3068707,10.7883276 18.3814655,10.8446034 18.3814655,11.0181207 C18.3814655,11.2596379 18.1714569,11.3701379 17.705569,11.3673534 C17.3550172,11.3647155 17.0353879,11.322069 16.6586034,11.2175776 L16.4913879,12.1034828 C16.8268448,12.1815948 17.2971293,12.2070948 17.7133362,12.2167672 C18.9544828,12.2167672 19.5277931,11.8103793 19.5277931,10.9316552 C19.5277931,10.4039224 19.2886207,10.0929397 18.6991897,9.86168103 C18.2064828,9.66486207 18.1485948,9.62192241 18.1485948,9.44415517 C18.1485948,9.23473276 18.3440948,9.12877586 18.7245431,9.12877586 C18.9553621,9.12877586 19.2710345,9.15017241 19.5710259,9.18637069 L19.7391207,8.29548276 C19.4337069,8.2525431 18.9704569,8.21898276 18.7024138,8.21898276 C17.3872586,8.21898276 16.9322155,8.81061207 16.936319,9.52182759" id="Fill-13" fill="#FFFFFF"></path>
                                    <path d="M12.3775345,12.1533103 L11.4130776,12.1533103 L11.4363793,11.7494138 C11.14225,12.0677241 10.7508103,12.2160345 10.2192672,12.2160345 C9.59041379,12.2160345 9.15911207,11.7860517 9.15911207,11.1674569 C9.15911207,10.2274741 9.90828448,9.68508621 11.196181,9.68508621 C11.3285172,9.68508621 11.4967586,9.69519828 11.6699828,9.71410345 C11.7057414,9.58836207 11.7152672,9.53443103 11.7152672,9.46613793 C11.7152672,9.20835345 11.5127328,9.11368103 10.970931,9.11368103 C10.4364569,9.11617241 10.0759397,9.19531034 9.74150862,9.28514655 L9.9057931,8.42239655 C10.4845259,8.27525862 10.863069,8.2185431 11.2920259,8.2185431 C12.2893103,8.2185431 12.8158707,8.6095431 12.8158707,9.3445 C12.8245172,9.54073276 12.755931,9.93393103 12.721931,10.1067155 C12.6825086,10.3571724 12.4062586,11.8103793 12.3775345,12.1533103 L12.3775345,12.1533103 Z M11.5310517,10.4379224 C11.4091207,10.425319 11.3557759,10.4222414 11.2719483,10.4222414 C10.6146638,10.4222414 10.2811121,10.6175948 10.2811121,11.0037586 C10.2811121,11.2467414 10.4440776,11.3987155 10.697319,11.3987155 C11.1700948,11.3987155 11.5112672,11.0031724 11.5310517,10.4379224 L11.5310517,10.4379224 Z" id="Fill-14" fill="#FFFFFF"></path>
                                    <path d="M21.5591466,12.0923448 C21.2427414,12.1791034 20.9962414,12.2167672 20.7295172,12.2167672 C20.1389138,12.2167672 19.8166466,11.9148707 19.8166466,11.377319 C19.7978879,11.2295948 19.9422414,10.54725 19.9749224,10.3571724 C20.00775,10.1665086 20.5193621,7.38700862 20.5193621,7.38700862 L21.6667155,7.38700862 L21.4933448,8.30632759 L22.0818966,8.30632759 L21.9218621,9.24528448 L21.330819,9.24528448 C21.330819,9.24528448 21.0062069,10.8743534 21.0062069,10.9983362 C21.0062069,11.1964741 21.1260862,11.2817672 21.4007241,11.2817672 C21.5320345,11.2817672 21.6334483,11.2700431 21.7122931,11.2463017 L21.5591466,12.0923448" id="Fill-15" fill="#FFFFFF"></path>
                                    <path d="M27.2663103,9.90330172 C27.2663103,10.7703017 26.9107759,11.2833793 26.3490431,11.2833793 C25.9397241,11.2893879 25.6916121,10.9463103 25.6916121,10.4322069 C25.6916121,9.82299138 26.0537414,9.13478448 26.6355517,9.13478448 C27.10525,9.13478448 27.2663103,9.50717241 27.2663103,9.90330172 L27.2663103,9.90330172 Z M28.5049655,9.92762931 C28.5049655,8.96771552 27.8743534,8.2185431 26.6866983,8.2185431 C25.3203966,8.2185431 24.4366897,9.12921552 24.4366897,10.4708966 C24.4366897,11.4311034 24.9578276,12.2167672 26.2527586,12.2167672 C27.5591207,12.2167672 28.5049655,11.5190345 28.5049655,9.92762931 L28.5049655,9.92762931 Z" id="Fill-16" fill="#FFFFFF"></path>
                                    <path d="M22.5813448,8.30603448 C22.4355259,9.49588793 22.1773017,10.7021552 21.9756466,11.8942069 L21.9269914,12.1538966 L23.0859224,12.1538966 C23.5035948,9.85142241 23.6438448,9.19575 24.5191983,9.42642241 L24.9402414,8.33710345 C24.3295603,8.11302586 23.9366552,8.43309483 23.5811207,8.88784483 C23.613069,8.68325862 23.6734483,8.48556034 23.6589397,8.30603448 L22.5813448,8.30603448" id="Fill-17" fill="#FFFFFF"></path>
                                    <polyline id="Fill-18" fill="#FFFFFF" points="8.61921552 12.1538966 7.46512069 12.1538966 8.15098276 8.53934483 6.57144828 12.1538966 5.5192069 12.1538966 5.32693103 8.56044828 4.63872414 12.1538966 3.59146552 12.1538966 4.48337931 7.45207759 6.28743103 7.45207759 6.38268966 10.3628879 7.65241379 7.45207759 9.52900862 7.45207759 8.61921552 12.1538966"></polyline>
                                </g>
                            </g>
                        </g>
                    </g>
                </g>
            </g>
        </g>
    </g>
</svg>