<?xml version="1.0" encoding="UTF-8"?>
<svg width="34px" height="22px" viewBox="0 0 34 22" version="1.1" xmlns="http://www.w3.org/2000/svg" xmlns:xlink="http://www.w3.org/1999/xlink">
    <!-- Generator: Sketch 41.1 (35376) - http://www.bohemiancoding.com/sketch -->
    <title>visa-card</title>
    <desc>Created with Sketch.</desc>
    <defs>
        <rect id="path-1" x="0" y="0" width="34" height="22" rx="3"></rect>
        <rect id="path-3" x="0" y="0" width="34" height="22"></rect>
        <mask id="mask-4" maskContentUnits="userSpaceOnUse" maskUnits="objectBoundingBox" x="0" y="0" width="34" height="22" fill="white">
            <use xlink:href="#path-3"></use>
        </mask>
    </defs>
    <g id="Page-1" stroke="none" stroke-width="1" fill="none" fill-rule="evenodd">
        <g id="DepositPage-Card" transform="translate(-686.000000, -386.000000)">
            <g id="Group-10" transform="translate(230.000000, 260.000000)">
                <g id="Group-9" transform="translate(10.000000, 10.000000)">
                    <g id="Group-6" transform="translate(212.000000, 96.000000)">
                        <g id="Group-11" transform="translate(234.000000, 20.000000)">
                            <g id="visa-card" transform="translate(17.000000, 11.000000) scale(1, -1) translate(-17.000000, -11.000000) ">
                                <mask id="mask-2" fill="white">
                                    <use xlink:href="#path-1"></use>
                                </mask>
                                <use id="Rectangle-2094" fill="#FFFFFF" xlink:href="#path-1"></use>
                                <g id="Rectangle-2094-Copy" mask="url(#mask-2)" stroke-width="2" stroke="#BEBEBE">
                                    <use mask="url(#mask-4)" xlink:href="#path-3"></use>
                                </g>
                                <polygon id="path4149" fill="#F7B600" mask="url(#mask-2)" points="0 3 34 3 34 0 0 0"></polygon>
                                <polygon id="path4151" fill="#1A1F71" mask="url(#mask-2)" points="0 19 34 19 34 22 0 22"></polygon>
                                <path d="M16.5850555,15.5140049 L14.8059903,7.19656003 L12.6541717,7.19656003 L14.4333985,15.5140049 L16.5850555,15.5140049 L16.5850555,15.5140049 L16.5850555,15.5140049 L16.5850555,15.5140049 Z M25.6378236,10.1431872 L26.7706319,13.2668158 L27.422223,10.1431872 L25.6378236,10.1431872 L25.6378236,10.1431872 L25.6378236,10.1431872 L25.6378236,10.1431872 Z M28.039707,7.19656003 L30.0293957,7.19656003 L28.291065,15.5140049 L26.4555858,15.5140049 C26.0419362,15.5140049 25.6934295,15.2741237 25.5390585,14.9042799 L22.3101991,7.19656003 L24.5699965,7.19656003 L25.0187231,8.43864043 L27.7789736,8.43864043 L28.039707,7.19656003 L28.039707,7.19656003 L28.039707,7.19656003 L28.039707,7.19656003 Z M22.422219,9.91203483 C22.4317561,12.1070127 19.3879803,12.2287313 19.4081859,13.2094317 C19.4148133,13.5075052 19.6989853,13.824976 20.3205104,13.9061218 C20.6287675,13.9458865 21.4788587,13.9778922 22.442748,13.5338533 L22.8197042,15.2983704 C22.3019552,15.4855554 21.635816,15.6659512 20.807062,15.6659512 C18.6798134,15.6659512 17.1833037,14.5360525 17.171342,12.9166926 C17.1577638,11.7192262 18.2403005,11.0516323 19.0541832,10.652854 C19.8934442,10.2451852 20.1747066,9.98364358 20.1706655,9.61945734 C20.1648463,9.06145872 19.5012934,8.81446509 18.8838094,8.80508968 C17.801111,8.78827859 17.1739283,9.09766717 16.6737986,9.33075932 L16.2832642,7.50740342 C16.7867885,7.27689758 17.7146309,7.07629611 18.675449,7.06595085 C20.9368629,7.06595085 22.4155916,8.18275635 22.422219,9.91203483 L22.422219,9.91203483 L22.422219,9.91203483 L22.422219,9.91203483 Z M13.5104054,15.5140049 L10.0238838,7.19656003 L7.74953828,7.19656003 L6.03367633,13.8345131 C5.92973859,14.2426668 5.83905573,14.3926734 5.52271641,14.5651486 C5.00529067,14.8462493 4.15099669,15.1090841 3.3999939,15.2726689 L3.45075044,15.5140049 L7.11233361,15.5140049 C7.57867948,15.5140049 7.99830997,15.2036464 8.10499572,14.6665 L9.01133939,9.8530344 L11.2497997,15.5140049 L13.5104054,15.5140049 L13.5104054,15.5140049 L13.5104054,15.5140049 L13.5104054,15.5140049 Z" id="path4163" fill="#1A1F71" mask="url(#mask-2)"></path>
                            </g>
                        </g>
                    </g>
                </g>
            </g>
        </g>
    </g>
</svg>